HIERARCHY
ROOT mixamorig:Hips
{
	OFFSET 0.000000 201.639420 0.000000
	CHANNELS 6 Xposition Yposition Zposition Xrotation Yrotation Zrotation
	JOINT mixamorig:Spine
	{
		OFFSET 0.006200 19.524994 -2.481800
		CHANNELS 3 Xrotation Yrotation Zrotation
		JOINT mixamorig:Spine1
		{
			OFFSET -0.000900 22.835007 -2.825400
			CHANNELS 3 Xrotation Yrotation Zrotation
			JOINT mixamorig:Spine2
			{
				OFFSET -0.020600 26.552490 -3.193300
				CHANNELS 3 Xrotation Yrotation Zrotation
				JOINT mixamorig:Neck
				{
					OFFSET -0.060000 30.701813 1.352200
					CHANNELS 3 Xrotation Yrotation Zrotation
					JOINT mixamorig:Head
					{
						OFFSET -0.087200 22.547607 3.670900
						CHANNELS 3 Xrotation Yrotation Zrotation
						JOINT mixamorig:HeadTop_End
						{
							OFFSET -0.830600 40.355194 7.893500
							CHANNELS 3 Xrotation Yrotation Zrotation
							End Site
							{
								OFFSET 0.000000 30.592346 0.000000
							}
						}
						JOINT mixamorig:RightEye
						{
							OFFSET -6.302100 18.118591 16.197100
							CHANNELS 3 Xrotation Yrotation Zrotation
							End Site
							{
								OFFSET 0.000000 30.592346 0.000000
							}
						}
						JOINT mixamorig:LeftEye
						{
							OFFSET 6.741500 18.382690 16.401899
							CHANNELS 3 Xrotation Yrotation Zrotation
							End Site
							{
								OFFSET 0.000000 30.592346 0.000000
							}
						}
					}
				}
				JOINT mixamorig:LeftShoulder
				{
					OFFSET 11.924900 18.230499 1.425400
					CHANNELS 3 Xrotation Yrotation Zrotation
					JOINT mixamorig:LeftArm
					{
						OFFSET 25.435989 -0.697632 -5.229300
						CHANNELS 3 Xrotation Yrotation Zrotation
						JOINT mixamorig:LeftForeArm
						{
							OFFSET 54.684776 0.000000 0.000000
							CHANNELS 3 Xrotation Yrotation Zrotation
							JOINT mixamorig:LeftHand
							{
								OFFSET 55.098175 0.000000 0.000000
								CHANNELS 3 Xrotation Yrotation Zrotation
								JOINT mixamorig:LeftHandMiddle1
								{
									OFFSET 23.369751 0.000000 0.000000
									CHANNELS 3 Xrotation Yrotation Zrotation
									JOINT mixamorig:LeftHandMiddle2
									{
										OFFSET 6.378677 0.000000 0.000000
										CHANNELS 3 Xrotation Yrotation Zrotation
										JOINT mixamorig:LeftHandMiddle3
										{
											OFFSET 6.148331 0.000000 0.000000
											CHANNELS 3 Xrotation Yrotation Zrotation
											JOINT mixamorig:LeftHandMiddle4
											{
												OFFSET 6.582504 0.000000 0.000000
												CHANNELS 3 Xrotation Yrotation Zrotation
												End Site
												{
													OFFSET -1.168900 6.395691 1.028606
												}
											}
										}
									}
								}
								JOINT mixamorig:LeftHandThumb1
								{
									OFFSET 7.235672 -3.848206 5.434273
									CHANNELS 3 Xrotation Yrotation Zrotation
									JOINT mixamorig:LeftHandThumb2
									{
										OFFSET 6.568451 -3.792297 3.792300
										CHANNELS 3 Xrotation Yrotation Zrotation
										JOINT mixamorig:LeftHandThumb3
										{
											OFFSET 6.063080 -3.500519 3.500518
											CHANNELS 3 Xrotation Yrotation Zrotation
											JOINT mixamorig:LeftHandThumb4
											{
												OFFSET 4.793182 -2.767334 2.767349
												CHANNELS 3 Xrotation Yrotation Zrotation
												End Site
												{
													OFFSET 0.101639 6.054260 1.275483
												}
											}
										}
									}
								}
								JOINT mixamorig:LeftHandIndex1
								{
									OFFSET 23.101074 -0.309540 4.992809
									CHANNELS 3 Xrotation Yrotation Zrotation
									JOINT mixamorig:LeftHandIndex2
									{
										OFFSET 6.226883 0.000000 0.000000
										CHANNELS 3 Xrotation Yrotation Zrotation
										JOINT mixamorig:LeftHandIndex3
										{
											OFFSET 6.094330 0.000000 0.000000
											CHANNELS 3 Xrotation Yrotation Zrotation
											JOINT mixamorig:LeftHandIndex4
											{
												OFFSET 5.482605 0.000000 0.000000
												CHANNELS 3 Xrotation Yrotation Zrotation
												End Site
												{
													OFFSET -1.427902 5.233032 0.797164
												}
											}
										}
									}
								}
								JOINT mixamorig:LeftHandRing1
								{
									OFFSET 22.299240 0.021149 -3.964172
									CHANNELS 3 Xrotation Yrotation Zrotation
									JOINT mixamorig:LeftHandRing2
									{
										OFFSET 6.321869 0.000000 0.000000
										CHANNELS 3 Xrotation Yrotation Zrotation
										JOINT mixamorig:LeftHandRing3
										{
											OFFSET 5.899796 0.000000 0.000000
											CHANNELS 3 Xrotation Yrotation Zrotation
											JOINT mixamorig:LeftHandRing4
											{
												OFFSET 6.517899 0.000000 0.000000
												CHANNELS 3 Xrotation Yrotation Zrotation
												End Site
												{
													OFFSET -1.637299 6.232208 0.980890
												}
											}
										}
									}
								}
								JOINT mixamorig:LeftHandPinky1
								{
									OFFSET 20.463791 -0.302338 -8.562233
									CHANNELS 3 Xrotation Yrotation Zrotation
									JOINT mixamorig:LeftHandPinky2
									{
										OFFSET 6.908646 0.000000 0.000000
										CHANNELS 3 Xrotation Yrotation Zrotation
										JOINT mixamorig:LeftHandPinky3
										{
											OFFSET 4.622849 0.000000 0.000000
											CHANNELS 3 Xrotation Yrotation Zrotation
											JOINT mixamorig:LeftHandPinky4
											{
												OFFSET 5.216080 0.000000 0.000000
												CHANNELS 3 Xrotation Yrotation Zrotation
												End Site
												{
													OFFSET -0.606308 5.116241 0.814926
												}
											}
										}
									}
								}
							}
						}
					}
				}
				JOINT mixamorig:RightShoulder
				{
					OFFSET -12.001300 18.284088 1.348900
					CHANNELS 3 Xrotation Yrotation Zrotation
					JOINT mixamorig:RightArm
					{
						OFFSET -25.308500 -0.751312 -5.164599
						CHANNELS 3 Xrotation Yrotation Zrotation
						JOINT mixamorig:RightForeArm
						{
							OFFSET -54.684429 0.000000 0.000000
							CHANNELS 3 Xrotation Yrotation Zrotation
							JOINT mixamorig:RightHand
							{
								OFFSET -55.150291 0.000000 0.000000
								CHANNELS 3 Xrotation Yrotation Zrotation
								JOINT mixamorig:RightHandMiddle1
								{
									OFFSET -23.317566 0.000000 0.000000
									CHANNELS 3 Xrotation Yrotation Zrotation
									JOINT mixamorig:RightHandMiddle2
									{
										OFFSET -6.378403 0.000000 0.000000
										CHANNELS 3 Xrotation Yrotation Zrotation
										JOINT mixamorig:RightHandMiddle3
										{
											OFFSET -6.148193 0.000000 0.000000
											CHANNELS 3 Xrotation Yrotation Zrotation
											JOINT mixamorig:RightHandMiddle4
											{
												OFFSET -6.583389 0.000000 0.000000
												CHANNELS 3 Xrotation Yrotation Zrotation
												End Site
												{
													OFFSET 1.171692 6.395905 1.029786
												}
											}
										}
									}
								}
								JOINT mixamorig:RightHandThumb1
								{
									OFFSET -7.190521 -3.860474 5.435846
									CHANNELS 3 Xrotation Yrotation Zrotation
									JOINT mixamorig:RightHandThumb2
									{
										OFFSET -6.567429 -3.791718 3.791708
										CHANNELS 3 Xrotation Yrotation Zrotation
										JOINT mixamorig:RightHandThumb3
										{
											OFFSET -6.062469 -3.500153 3.500166
											CHANNELS 3 Xrotation Yrotation Zrotation
											JOINT mixamorig:RightHandThumb4
											{
												OFFSET -4.792618 -2.767029 2.767022
												CHANNELS 3 Xrotation Yrotation Zrotation
												End Site
												{
													OFFSET -0.100327 6.053253 1.276754
												}
											}
										}
									}
								}
								JOINT mixamorig:RightHandIndex1
								{
									OFFSET -23.048981 -0.310791 4.992554
									CHANNELS 3 Xrotation Yrotation Zrotation
									JOINT mixamorig:RightHandIndex2
									{
										OFFSET -6.227539 0.000000 0.000000
										CHANNELS 3 Xrotation Yrotation Zrotation
										JOINT mixamorig:RightHandIndex3
										{
											OFFSET -6.095047 0.000000 0.000000
											CHANNELS 3 Xrotation Yrotation Zrotation
											JOINT mixamorig:RightHandIndex4
											{
												OFFSET -5.484772 0.000000 0.000000
												CHANNELS 3 Xrotation Yrotation Zrotation
												End Site
												{
													OFFSET 1.420593 5.237305 0.797056
												}
											}
										}
									}
								}
								JOINT mixamorig:RightHandRing1
								{
									OFFSET -22.246323 0.020569 -3.963762
									CHANNELS 3 Xrotation Yrotation Zrotation
									JOINT mixamorig:RightHandRing2
									{
										OFFSET -6.322128 0.000000 0.000000
										CHANNELS 3 Xrotation Yrotation Zrotation
										JOINT mixamorig:RightHandRing3
										{
											OFFSET -5.900024 0.000000 0.000000
											CHANNELS 3 Xrotation Yrotation Zrotation
											JOINT mixamorig:RightHandRing4
											{
												OFFSET -6.518356 0.000000 0.000000
												CHANNELS 3 Xrotation Yrotation Zrotation
												End Site
												{
													OFFSET 1.636398 6.232697 0.982186
												}
											}
										}
									}
								}
								JOINT mixamorig:RightHandPinky1
								{
									OFFSET -20.411011 -0.303314 -8.561701
									CHANNELS 3 Xrotation Yrotation Zrotation
									JOINT mixamorig:RightHandPinky2
									{
										OFFSET -6.907349 0.000000 0.000000
										CHANNELS 3 Xrotation Yrotation Zrotation
										JOINT mixamorig:RightHandPinky3
										{
											OFFSET -4.623840 0.000000 0.000000
											CHANNELS 3 Xrotation Yrotation Zrotation
											JOINT mixamorig:RightHandPinky4
											{
												OFFSET -5.218353 0.000000 0.000000
												CHANNELS 3 Xrotation Yrotation Zrotation
												End Site
												{
													OFFSET 0.602097 5.118835 0.816273
												}
											}
										}
									}
								}
							}
						}
					}
				}
			}
		}
	}
	JOINT mixamorig:LeftUpLeg
	{
		OFFSET 18.168400 -13.561905 -0.039000
		CHANNELS 3 Xrotation Yrotation Zrotation
		JOINT mixamorig:LeftLeg
		{
			OFFSET 0.577358 -80.825211 -3.695000
			CHANNELS 3 Xrotation Yrotation Zrotation
			JOINT mixamorig:LeftFoot
			{
				OFFSET -0.577356 -83.370262 -6.520700
				CHANNELS 3 Xrotation Yrotation Zrotation
				JOINT mixamorig:LeftToeBase
				{
					OFFSET 0.750401 -20.798306 25.135401
					CHANNELS 3 Xrotation Yrotation Zrotation
					JOINT mixamorig:LeftToe_End
					{
						OFFSET -0.000500 0.001200 19.917799
						CHANNELS 3 Xrotation Yrotation Zrotation
						End Site
						{
							OFFSET 0.000000 19.917805 0.000000
						}
					}
				}
			}
		}
	}
	JOINT mixamorig:RightUpLeg
	{
		OFFSET -18.162500 -13.585098 -0.041000
		CHANNELS 3 Xrotation Yrotation Zrotation
		JOINT mixamorig:RightLeg
		{
			OFFSET -0.595024 -80.945297 -3.631900
			CHANNELS 3 Xrotation Yrotation Zrotation
			JOINT mixamorig:RightFoot
			{
				OFFSET 0.595024 -83.218193 -6.561200
				CHANNELS 3 Xrotation Yrotation Zrotation
				JOINT mixamorig:RightToeBase
				{
					OFFSET -0.753601 -20.807106 25.115000
					CHANNELS 3 Xrotation Yrotation Zrotation
					JOINT mixamorig:RightToe_End
					{
						OFFSET 0.000299 0.001700 19.918200
						CHANNELS 3 Xrotation Yrotation Zrotation
						End Site
						{
							OFFSET 0.000000 19.918203 0.000000
						}
					}
				}
			}
		}
	}
}
MOTION
Frames: 4
Frame Time: 0.033333
20.673923 37.856384 13.767670 85.348972 -48.953366 9.341375 -2.197385 -12.301910 1.076849 1.577974 -3.578129 5.736030 1.454023 -3.719141 5.674765 -20.940880 7.341437 -3.125962 -25.701047 28.696169 9.373282 -0.000001 -0.000002 -0.000002 -0.000001 -0.000002 -0.000002 -0.000001 -0.000002 -0.000002 -21.101697 -5.036332 14.582794 -26.936157 -5.033192 19.400264 0.000283 -97.056544 0.000275 -147.932007 -30.127275 25.701985 0.405912 5.507041 -52.453155 3.387147 5.308613 -65.057429 0.282013 1.797451 -17.832383 0.000002 -0.000001 0.000003 1.567987 0.456409 2.719338 19.471730 -1.478289 7.637095 -4.536180 -9.613099 1.492976 0.000004 0.000001 0.000001 -1.882826 2.129427 -39.817021 2.947083 5.081743 -60.200529 0.514400 2.402396 -24.167397 0.000001 0.000001 -0.000001 0.146919 5.902025 -61.705787 4.359981 5.658529 -75.211236 0.616349 2.617565 -26.495108 -0.000002 -0.000000 -0.000001 2.430776 7.192131 -65.288726 4.308177 5.644644 -74.685038 1.285804 3.663582 -38.668566 -0.000002 0.000002 0.000001 3.023587 -1.614654 41.527776 -11.285122 3.592269 29.408052 -0.000028 48.617556 0.000027 -103.161961 -3.531256 -58.423068 0.029490 -3.301623 0.144707 4.879490 -4.651878 92.739154 4.906326 -4.650496 93.070254 0.000002 -0.000000 -0.000003 -49.993925 -21.517463 0.612533 22.998266 -30.067930 6.601841 3.309944 -31.123499 -13.523279 0.000001 -0.000000 0.000000 -10.295935 15.607643 29.995988 0.234815 -1.461541 18.252381 0.618366 -2.320864 29.835772 -0.000000 0.000000 -0.000002 -7.825825 9.193819 32.507114 4.694126 -4.657018 90.455043 5.763446 -4.524116 103.756495 -0.000001 -0.000000 0.000000 -18.548663 10.504445 52.979240 2.498820 -4.127812 62.364319 1.658512 -3.564955 49.887268 -0.000001 0.000000 -0.000001 -9.933969 8.112766 -10.464003 33.245031 6.042475 -1.148210 11.969335 6.078740 -7.041982 12.295818 0.000011 -0.000001 -0.000002 -0.000001 0.000001 -54.350161 8.364324 -21.838843 39.892898 -12.728960 -1.455762 9.194065 -14.525826 19.914248 -17.662557 -0.000015 -0.000009 0.000002 0.000000 0.000001 
19.661856 39.056366 13.984207 84.595984 -50.305914 8.886550 -4.579298 -14.180452 -0.350011 2.032369 -3.569261 4.900335 1.926455 -3.767026 4.801076 -20.997321 7.206088 -2.886083 -22.540891 28.393021 8.942692 -0.000001 0.000001 0.000002 -0.000001 0.000001 0.000002 -0.000001 0.000001 0.000002 -20.906775 -4.237519 13.881088 -22.196732 -8.809404 22.763076 -0.000392 -95.846849 -0.000415 -148.552544 -30.396541 24.587923 0.405912 5.507043 -52.453158 3.387154 5.308610 -65.057436 0.282016 1.797451 -17.832379 0.000002 -0.000002 0.000002 1.567986 0.456411 2.719339 19.471729 -1.478285 7.637096 -4.536184 -9.613105 1.492973 0.000001 0.000002 -0.000001 -1.882826 2.129427 -39.817025 2.947086 5.081740 -60.200529 0.514395 2.402392 -24.167392 0.000003 0.000001 0.000001 0.145761 5.901414 -61.705650 4.360241 5.658595 -75.214125 0.616673 2.618261 -26.502442 -0.000003 0.000001 -0.000003 2.430005 7.191833 -65.291431 4.307945 5.644592 -74.683051 1.285895 3.663709 -38.669908 0.000000 -0.000002 -0.000001 2.848491 -1.213935 40.098091 -10.572284 5.490498 27.757336 -0.000000 48.648518 -0.000002 -108.661452 -7.797582 -63.936397 -0.426357 0.288699 9.188968 4.455390 -4.652815 87.513964 4.492559 -4.654257 87.972017 0.000002 -0.000001 -0.000002 -40.458851 -11.405636 -1.764876 33.046955 -28.146443 14.048897 5.670560 -30.881584 -10.774915 0.000003 0.000000 0.000000 -14.932093 19.300778 35.469900 0.105832 -0.988176 12.224169 0.371513 -1.824442 23.017879 -0.000000 -0.000000 0.000004 -8.784806 6.619873 40.688489 4.113414 -4.625373 83.287682 5.172705 -4.628583 96.362665 -0.000001 -0.000000 0.000000 -15.766990 4.259663 60.753501 2.029840 -3.846661 55.627567 1.213186 -3.136880 42.279687 0.000000 0.000001 0.000000 -10.276138 8.984246 -9.555321 35.064665 7.485163 -0.352094 15.434223 4.053462 -6.515847 12.259950 -0.000003 0.000007 -0.000001 0.000001 0.000001 -53.753964 8.250573 -20.226364 39.363958 -13.564296 -1.714736 9.664373 -12.876009 16.388861 -19.005637 -0.000009 0.000017 -0.000002 0.000000 0.000001 
18.900528 39.765732 14.471405 83.718243 -51.464656 8.329404 -7.113582 -15.822232 -1.611233 1.919574 -3.900027 4.330957 1.800510 -4.089723 4.235341 -20.341067 6.990641 -1.641275 -17.653473 29.459316 9.358748 -0.000002 0.000004 0.000002 -0.000002 0.000004 0.000002 -0.000002 0.000004 0.000002 -20.717810 -3.849282 13.249310 -17.080047 -11.584791 23.842794 -0.003093 -94.207297 -0.003089 -147.805772 -29.809838 24.008525 0.405914 5.507050 -52.453151 3.387151 5.308610 -65.057436 0.282012 1.797452 -17.832379 0.000005 -0.000001 -0.000002 1.567986 0.456415 2.719340 19.471729 -1.478284 7.637097 -4.536188 -9.613099 1.492976 0.000000 -0.000000 0.000000 -1.882825 2.129432 -39.817021 2.947088 5.081738 -60.200536 0.514398 2.402395 -24.167397 -0.000000 0.000001 -0.000001 0.144585 5.900778 -61.705507 4.360544 5.658670 -75.216994 0.617006 2.618915 -26.509820 -0.000001 -0.000000 0.000001 2.429236 7.191551 -65.294095 4.307743 5.644541 -74.681036 1.285987 3.663817 -38.671274 0.000000 0.000003 0.000001 2.608685 -1.073010 36.618167 -13.747695 5.599297 27.936333 0.000017 49.749387 -0.000012 -109.767144 -13.283921 -68.428687 -0.542765 1.426535 8.492586 3.076896 -4.381424 70.144390 3.111459 -4.393694 70.596063 -0.000001 -0.000001 -0.000000 -32.517113 -0.193840 -5.385793 43.984038 -21.779983 17.123228 9.595543 -30.179502 -6.273832 -0.000002 -0.000000 0.000002 -13.287208 20.845034 30.992158 -0.000011 0.000003 -0.000012 0.023406 -0.466879 5.740936 -0.000000 -0.000000 -0.000001 -5.264814 2.850301 38.522069 2.305250 -4.020794 59.640365 3.217577 -4.429528 71.975796 0.000001 -0.000002 0.000004 -10.090026 2.039308 56.517039 1.086110 -2.991364 39.902559 0.465106 -2.030569 25.800085 -0.000003 -0.000000 0.000001 -10.237310 10.022545 -8.964982 35.906485 7.428597 -0.219224 17.915617 3.873075 -5.698462 12.221111 -0.000001 -0.000006 0.000001 0.000001 -0.000001 -53.894000 8.613900 -19.087363 40.401710 -14.685844 -1.744330 11.977666 -10.145146 13.762513 -18.801368 0.000006 -0.000012 -0.000001 -0.000000 -0.000000 
18.684729 39.824203 14.946533 82.735741 -52.444904 7.688787 -9.061258 -17.252911 -2.448280 1.182879 -4.571673 4.200186 1.037285 -4.698215 4.157752 -18.619705 6.623741 0.534103 -11.778286 31.606171 9.260867 0.000001 0.000000 0.000000 0.000001 0.000000 0.000000 0.000001 0.000000 0.000000 -20.549565 -3.841798 12.771398 -12.494225 -12.644602 22.618778 -0.001343 -92.481738 -0.001438 -146.407864 -28.499888 23.672510 0.405914 5.507047 -52.453155 3.387151 5.308611 -65.057436 0.282016 1.797452 -17.832386 -0.000001 -0.000000 0.000002 1.567988 0.456410 2.719341 19.471727 -1.478285 7.637097 -4.536185 -9.613104 1.492974 0.000003 0.000003 0.000001 -1.882825 2.129426 -39.817018 2.947087 5.081738 -60.200529 0.514395 2.402394 -24.167397 0.000001 0.000000 0.000000 0.143417 5.900135 -61.705343 4.360831 5.658741 -75.219842 0.617349 2.619586 -26.517158 0.000000 -0.000003 0.000001 2.428467 7.191262 -65.296738 4.307563 5.644489 -74.679028 1.286073 3.663907 -38.672651 -0.000001 0.000000 0.000001 2.229266 -0.770398 31.148453 -20.550999 3.573809 29.492084 -0.000021 53.180959 0.000018 -106.802049 -17.260286 -72.101198 -0.809380 3.598416 8.159035 0.798826 -2.610148 34.028535 0.830490 -2.656361 34.717698 0.000004 0.000000 0.000002 -27.121561 9.991883 -9.516622 53.709520 -14.444617 16.272181 14.049895 -28.935393 -1.228736 0.000001 -0.000005 0.000003 -7.346601 20.420358 19.046676 -0.000012 0.000000 -0.000014 0.158034 1.204121 -14.952683 -0.000000 -0.000000 -0.000001 -3.339303 3.312528 27.185058 0.636093 -2.351445 30.270067 1.223216 -3.147843 42.462497 -0.000001 0.000001 0.000000 -5.517075 0.890976 47.208540 0.426791 -1.949342 24.696238 0.073240 -0.823632 10.164505 -0.000002 -0.000000 0.000001 -9.641138 10.956743 -8.683357 35.580405 8.027567 -0.941764 19.496584 3.853723 -3.564426 12.179908 0.000002 -0.000022 -0.000002 -0.000001 0.000004 -54.922975 9.302048 -18.180715 42.654514 -15.447561 -1.713523 15.667564 -8.209825 11.299420 -17.131137 -0.013627 -0.172480 0.000002 0.000000 0.000000 
